<svg width="20" height="21" viewBox="0 0 20 21" fill="none" xmlns="http://www.w3.org/2000/svg">
<g id="ic-help">
<rect y="0.342285" width="20" height="20" rx="10" fill="#CBD1D6"/>
<path id="ic-sm" d="M12.6377 4.92619C13.3792 5.50153 13.75 6.35528 13.75 7.48742C13.75 8.08131 13.569 8.65665 13.207 9.21345C13.1036 9.39915 12.7242 9.7704 12.0688 10.3272L11.4741 10.7448C11.1293 11.0603 10.9224 11.3387 10.8535 11.58C10.8018 11.7283 10.7674 11.9324 10.7502 12.1923C10.7502 12.3221 10.6813 12.387 10.5434 12.387H8.88808C8.75 12.387 8.68096 12.3313 8.68096 12.2201C8.71541 11.3107 8.83613 10.7354 9.04312 10.4941C9.1812 10.2898 9.38819 10.0672 9.66408 9.82617C9.93998 9.58514 10.1814 9.39032 10.3884 9.2417L10.6989 9.04702C10.8886 8.89869 11.0352 8.74095 11.1386 8.5738C11.38 8.16561 11.5007 7.84086 11.5007 7.59954C11.5007 7.22843 11.3886 6.8666 11.1644 6.51403C10.923 6.18001 10.5264 6.013 9.97456 6.013C9.38832 6.013 8.9831 6.21709 8.75888 6.62528C8.51744 7.01492 8.39672 7.44179 8.39672 7.90589H6.25C6.30168 6.40264 6.79317 5.32626 7.72448 4.67675C8.32795 4.28711 9.04352 4.09229 9.87121 4.09229C10.992 4.09229 11.9146 4.37069 12.6389 4.92749L12.6377 4.92619ZM9.84456 13.7788C10.2238 13.7788 10.5385 13.918 10.7885 14.1964C11.0386 14.4748 11.155 14.8181 11.1378 15.2263C11.1205 15.653 10.9826 15.9917 10.7239 16.2423C10.4653 16.4929 10.1463 16.6089 9.76704 16.5904C9.38779 16.5904 9.07313 16.4558 8.82308 16.1867C8.57302 15.9175 8.45661 15.5696 8.47384 15.1429C8.49106 14.7162 8.62901 14.3775 8.88768 14.1269C9.14635 13.8763 9.46531 13.7603 9.84456 13.7788Z" fill="white"/>
</g>
</svg>
