<svg width="12" height="13" viewBox="0 0 12 13" fill="none" xmlns="http://www.w3.org/2000/svg">
<g id="ic-plus">
<path id="icon" fill-rule="evenodd" clip-rule="evenodd" d="M6.75 1.46729C6.75 1.26018 6.58211 1.09229 6.375 1.09229H5.625C5.41789 1.09229 5.25 1.26018 5.25 1.46728V5.59229H1.125C0.917893 5.59229 0.75 5.76018 0.75 5.96729V6.71729C0.75 6.92439 0.917893 7.09229 1.125 7.09229H5.25V11.2173C5.25 11.4244 5.41789 11.5923 5.625 11.5923H6.375C6.58211 11.5923 6.75 11.4244 6.75 11.2173V7.09229H10.875C11.0821 7.09229 11.25 6.92439 11.25 6.71729V5.96729C11.25 5.76018 11.0821 5.59229 10.875 5.59229H6.75V1.46729Z" fill="#444B52"/>
</g>
</svg>
